<svg width="211" height="44" xmlns="http://www.w3.org/2000/svg"><path d="M146.678.71h-7.303a.725.725 0 0 0-.728.728v15.954h-7.41V1.438a.725.725 0 0 0-.728-.728h-7.277a.725.725 0 0 0-.727.728v41.097c0 .405.323.728.727.728h7.304a.725.725 0 0 0 .727-.728v-16.52h7.411v16.52c0 .405.324.728.728.728h7.303a.725.725 0 0 0 .728-.728V1.438a.725.725 0 0 0-.728-.728h-.027zm-62.01 0h-7.465c-.377 0-.7.27-.728.647v29.32c.054 1.213-.296 2.4-1.024 3.342l.027-.027a3.314 3.314 0 0 1-4.662.243 1.03 1.03 0 0 1-.243-.243 5.064 5.064 0 0 1-.97-3.26V1.357a.652.652 0 0 0-.7-.647H61.41a.67.67 0 0 0-.728.62V30.759v-.081c-.242 3.53.89 7.006 3.153 9.701l-.027-.027a12.283 12.283 0 0 0 9.163 3.612h.108a12.283 12.283 0 0 0 9.163-3.612l-.027.027a13.626 13.626 0 0 0 3.153-9.701V1.357a.705.705 0 0 0-.701-.647zM12.471.01h-.054a12.283 12.283 0 0 0-9.163 3.61l.081-.107A13.65 13.65 0 0 0 .02 13.188v17.597-.08c-.242 3.53.89 7.006 3.153 9.701l-.027-.027a12.283 12.283 0 0 0 9.163 3.612h.135a12.283 12.283 0 0 0 9.163-3.612 13.626 13.626 0 0 0 3.153-9.701V21.11a.766.766 0 0 0-.755-.728h-10.78a.791.791 0 0 0-.781.728v7.168c.027.431.35.755.781.755h2.965v1.644a5.428 5.428 0 0 1-1.024 3.45l.027-.028c-.647.809-1.644 1.267-2.668 1.186h-.054c-1.024.08-2.021-.323-2.668-1.132a5.197 5.197 0 0 1-1.078-3.422V13.295v.027A5.312 5.312 0 0 1 9.857 9.82c.647-.809 1.644-1.267 2.668-1.186h.054c1.024-.08 2.02.324 2.668 1.132l.054.054a5.447 5.447 0 0 1 .889 3.476v1.617c.027.378.35.647.727.647h7.304c.377 0 .7-.27.727-.647v-1.697.053c.189-3.53-.997-6.98-3.341-9.647h.027A12.387 12.387 0 0 0 12.47.009zM112.803 21.3l.054-.055a11.316 11.316 0 0 0 3.476-8.165v.108a12.704 12.704 0 0 0-3.126-8.57v.027a11.826 11.826 0 0 0-9-3.935H92.563a.725.725 0 0 0-.728.728v41.097c0 .405.324.728.728.728H104.8c3.692.054 7.222-1.536 9.594-4.366l-.027.027a13.431 13.431 0 0 0 2.695-8.812v.108c0-3.477-1.563-6.738-4.258-8.92zM100.541 9.36h3.692-.027a3.112 3.112 0 0 1 2.453.944l.053.054a4.47 4.47 0 0 1 .863 3.018v-.054c.108 1.132-.243 2.291-.916 3.234v-.027a2.968 2.968 0 0 1-2.426 1.024h-3.692V9.361zm6.845 24.255l.027-.027a3.21 3.21 0 0 1-2.722 1.132h-4.15v-8.893h4.204-.027a3.21 3.21 0 0 1 2.722 1.132l-.027-.027a4.84 4.84 0 0 1 1.024 3.234v.027c.054 1.212-.35 2.398-1.078 3.368l.027.054zm-57.213-8.678l.027-.026c.754-.513 1.428-1.132 2.048-1.806l-.027.054a13.558 13.558 0 0 0 3.288-9.325v-.08a13.293 13.293 0 0 0-3.423-9.136l.135.161A12.243 12.243 0 0 0 43.409.656H31.147a.725.725 0 0 0-.728.728v41.151c0 .405.323.728.728.728h7.303a.725.725 0 0 0 .728-.728V27.31h2.695l4.608 15.523c.08.296.377.512.7.512h7.762a.753.753 0 0 0 .593-.297.687.687 0 0 0 0-.646l-5.363-17.464zm-4.5-7.572a3.749 3.749 0 0 1-2.911 1.185h-3.584V9.36h3.557a3.749 3.749 0 0 1 2.91 1.187v-.027a4.796 4.796 0 0 1 1.105 3.26v.054c.081 1.294-.296 2.534-1.105 3.53h.027zm160.348 3.934l.053-.054a11.316 11.316 0 0 0 3.477-8.165v.161a12.678 12.678 0 0 0-3.126-8.785l.054.08a11.826 11.826 0 0 0-9.001-3.934h-11.696a.725.725 0 0 0-.728.728v41.205c0 .405.323.728.728.728h12.18c3.693.054 7.223-1.536 9.595-4.366l-.027.027a13.431 13.431 0 0 0 2.695-8.812v.054c0-3.45-1.563-6.738-4.258-8.894l.054.027zM193.759 9.361h3.692-.027a3.112 3.112 0 0 1 2.452.943l.054.054a4.47 4.47 0 0 1 .862 3.018v-.054c.108 1.132-.242 2.291-.916 3.234v-.027a2.968 2.968 0 0 1-2.425 1.024h-3.692V9.361zm6.845 24.254l.027-.027a3.21 3.21 0 0 1-2.722 1.132h-4.15v-8.893h4.204-.027a3.21 3.21 0 0 1 2.722 1.132l-.027-.027a4.84 4.84 0 0 1 1.024 3.234v.027c.054 1.212-.35 2.398-1.078 3.368l.027.054zM177.886.71h-7.52a.67.67 0 0 0-.727.62v29.348c.054 1.185-.27 2.344-.97 3.287a3.314 3.314 0 0 1-4.662.243 1.03 1.03 0 0 1-.243-.243 5.064 5.064 0 0 1-.97-3.26V1.357c-.027-.377-.35-.647-.728-.647h-7.492c-.377 0-.7.27-.727.647v29.402c-.243 3.449.89 6.925 3.153 9.62l.08.081c5.256 4.716 13.26 4.662 18.434-.161l-.108.08a13.626 13.626 0 0 0 3.153-9.701V1.357c-.027-.35-.323-.647-.673-.647z" fill="#FFF" fill-rule="nonzero"/></svg>