<?xml version="1.0" encoding="UTF-8"?>
<svg width="100px" height="100px" viewBox="0 0 100 100" version="1.1" xmlns="http://www.w3.org/2000/svg" xmlns:xlink="http://www.w3.org/1999/xlink">
    <!-- Generator: Sketch 57.1 (83088) - https://sketch.com -->
    <title>illustration_2_gh</title>
    <desc>Created with Sketch.</desc>
    <defs>
        <linearGradient x1="47.0909443%" y1="-1.95958359%" x2="47.3462846%" y2="6.86874872%" id="linearGradient-1">
            <stop stop-color="#FFFFFF" offset="0%"></stop>
            <stop stop-color="#FEFEFE" offset="2%"></stop>
            <stop stop-color="#E7E7E7" offset="62%"></stop>
            <stop stop-color="#DEDEDE" offset="100%"></stop>
        </linearGradient>
        <linearGradient x1="50.0077409%" y1="49.8699798%" x2="50.5121909%" y2="49.6003082%" id="linearGradient-2">
            <stop stop-color="#FFFFFF" offset="0%"></stop>
            <stop stop-color="#FEFEFE" offset="2%"></stop>
            <stop stop-color="#E7E7E7" offset="62%"></stop>
            <stop stop-color="#DEDEDE" offset="100%"></stop>
        </linearGradient>
        <linearGradient x1="41.3115496%" y1="-19.7732105%" x2="53.1767562%" y2="97.1955047%" id="linearGradient-3">
            <stop stop-color="#FFFFFF" offset="0%"></stop>
            <stop stop-color="#FEFEFE" offset="2%"></stop>
            <stop stop-color="#E7E7E7" offset="62%"></stop>
            <stop stop-color="#DEDEDE" offset="100%"></stop>
        </linearGradient>
        <linearGradient x1="53.135077%" y1="2.6896151%" x2="49.1580079%" y2="84.1458047%" id="linearGradient-4">
            <stop stop-color="#FFFFFF" offset="0%"></stop>
            <stop stop-color="#FEFEFE" offset="2%"></stop>
            <stop stop-color="#E7E7E7" offset="62%"></stop>
            <stop stop-color="#DEDEDE" offset="100%"></stop>
        </linearGradient>
        <linearGradient x1="27.5395034%" y1="50%" x2="90.6320542%" y2="50%" id="linearGradient-5">
            <stop stop-color="#FFFFFF" offset="0%"></stop>
            <stop stop-color="#FEFEFE" offset="2%"></stop>
            <stop stop-color="#E7E7E7" offset="62%"></stop>
            <stop stop-color="#DEDEDE" offset="100%"></stop>
        </linearGradient>
    </defs>
    <g id="illustration_2_gh" stroke="none" stroke-width="1" fill="none" fill-rule="evenodd">
        <rect id="bounding-box" fill-opacity="0" fill="#FFFFFF" x="0" y="0" width="100" height="100"></rect>
        <g id="bag" transform="translate(14.000000, 6.000000)" fill-rule="nonzero">
            <path d="M48.6184211,16 L45.5034085,16 L45.5034085,9.41816741 C45.3761334,5.54311045 42.1073326,2.46579879 38.1184211,2.46579879 C34.1295095,2.46579879 30.8607087,5.54311045 30.7334336,9.41816741 L30.7334336,16 L27.6184211,16 L27.6184211,9.41816741 C28.058282,4.09887256 32.627978,0 38.1184211,0 C43.6088642,0 48.1785601,4.09887256 48.6184211,9.41816741 L48.6184211,16 Z" id="Path" fill="#DEDEDE"></path>
            <path d="M6.86493767,12 L2.61842105,15.6665536 C2.61842105,15.6665536 4.22399447,23.05763 4.45657754,22.9996608 C4.6891606,22.9416916 9.61842105,21.448984 9.61842105,21.448984 L6.86493767,12 Z" id="Path" fill="#DEDEDE"></path>
            <polygon id="Path" fill="url(#linearGradient-1)" points="66.212969 12 64.4784395 13.6018575 62.5121409 12 60.7701349 13.6018575 58.8113127 12 57.0543539 13.6018575 55.1104845 12 53.3535257 13.6018575 51.4096564 12 49.6377447 13.6018575 47.7088282 12 45.9294401 13.6018575 44.0080001 12 42.2211356 13.6018575 40.3071719 12 38.512831 13.6018575 36.6063438 12 34.8045264 13.6018575 32.9055156 12 31.0962218 13.6018575 29.197211 12 27.3879173 13.6018575 25.5038593 12 23.6796127 13.6018575 21.7955547 12 19.9638317 13.6018575 18.0947266 12 16.2555271 13.6018575 14.3938984 12 12.5472225 13.6018575 10.6930702 12 8.83891795 13.6018575 6.99224208 12 6.98476566 14.08614 6.96981282 16.1797306 6.9623364 18.2882221 6.94738356 20.4116146 6.93990713 22.5424576 6.93243071 24.6807512 6.91747787 26.8413962 6.91000145 29.0094917 6.89504861 31.1850378 6.88009577 33.3754848 6.87261935 35.5882833 6.85766651 37.8010819 6.85019009 40.0362319 6.83523725 42.2788324 6.82776083 44.5363339 6.81280799 46.801286 6.80533157 49.0885895 6.79037872 51.3833435 6.77542588 53.6929986 6.76794946 56.0175546 6.75299662 58.3495611 6.7455202 60.7039192 6.73056736 63.0731782 6.71561452 65.4498877 6.7081381 67.8414983 6.69318526 70.2480098 6.67823242 72.6694223 6.670756 75.1057359 6.65580316 77.5569504 6.64085031 80.0230659 6.63337389 82.5040825 6.61842105 85 8.65200743 85 10.6781174 85 12.7117038 85 14.7452902 85 16.7714001 85 18.8049865 85 20.8385729 85 22.8646828 85 24.8982692 85 26.9318556 85 28.9579656 85 30.9915519 85 33.0251383 85 35.0587247 85 37.0848347 85 39.1184211 85 41.144531 85 43.1781174 85 45.2117038 85 47.2452902 85 49.2714001 85 51.3049865 85 53.3385729 85 55.3646828 85 57.3982692 85 59.4318556 85 61.4579656 85 63.4915519 85 65.5251383 85 67.5512483 85 69.5848347 82.735048 71.6184211 83.5918555 71.4315105 81.4461115 71.2446 80.0230659 71.0651659 77.5569504 70.8857318 75.1057359 70.7062977 72.6694223 70.5268637 70.2480098 70.3474296 67.8414983 70.1679955 65.4498877 69.9960378 63.0731782 69.8166037 60.7039192 69.644646 58.3495611 69.4726884 56.0175546 69.3007307 53.6929986 69.128773 51.3833435 68.9568153 49.0885895 68.7923341 46.801286 68.6203764 44.5363339 68.4558952 42.2788324 68.2914139 40.0362319 68.1269327 37.8010819 67.9624514 35.5882833 67.7979702 33.3754848 67.6334889 31.1850378 67.4690077 29.0094917 67.3120028 26.8413962 67.154998 24.6807512 66.9905168 22.5424576 66.8335119 20.4116146 66.6765071 18.2882221 66.5195023 16.1797306 66.3699738 14.08614"></polygon>
            <path d="M65.4755639,89 L72.6184211,83.1779832 L66.9433818,11 L62.6184211,14.8012135 C62.6184211,14.8012135 62.7440097,83.8390639 65.4755639,89 Z" id="Path" fill="url(#linearGradient-2)"></path>
            <polygon id="Path" fill="url(#linearGradient-3)" points="62.9085325 15 61.1094053 16.6257973 59.2057646 15 57.4066374 16.6257973 55.5029967 15 53.6964043 16.6257973 51.8002288 15 49.9861711 16.6257973 48.1049262 15 46.275938 16.6257973 44.4021583 15 42.5657048 16.6257973 40.6993904 15 38.8554717 16.6257973 36.9966225 15 35.1452386 16.6257973 33.2938546 15 31.4350054 16.6257973 29.598552 15 27.7322375 16.6257973 25.8957841 15 24.0220044 16.6257973 22.1930162 15 20.3117712 16.6257973 18.4902483 15 16.6015381 16.6257973 14.7874804 15 12.8913049 16.6257973 11.0921778 15 9.18107179 16.6257973 7.38940991 15 5.47083865 16.6257973 3.68664202 15 3.59705893 17.1127873 3.50747584 19.2405589 3.41789274 21.3758226 3.32830965 23.5260707 3.24619181 25.6838109 3.15660872 27.8565354 3.05956037 30.0442442 2.96997727 32.2394452 2.88039418 34.4496305 2.79081108 36.6748 2.69376273 38.9074618 2.60417964 41.1551078 2.50713129 43.4177382 2.41754819 45.6953528 2.32049984 47.9804597 2.22345149 50.2805508 2.12640314 52.5956262 2.02935478 54.9181938 1.93230643 57.2632378 1.83525808 59.615774 1.73820973 61.9907867 1.64116138 64.3732915 1.53664777 66.7707806 1.43959941 69.183254 1.34255106 71.6032196 1.23803745 74.0456616 1.13352384 76.503088 1.03647549 78.9680065 0.931961882 81.4554014 0.827448272 83.9577807 0.722934662 86.4676521 0.618421053 89 2.64897118 89 4.67952132 89 6.71007145 89 8.74062158 89 10.778637 89 12.8091871 89 14.8397372 89 16.8702874 89 18.9008375 89 20.9313876 89 22.9619378 89 24.9924879 89 27.023038 89 29.0535882 89 31.0916035 89 33.1221537 89 35.1527038 89 37.1832539 89 39.2138041 89 41.2443542 89 43.2749043 89 45.3054545 89 47.3360046 89 49.37402 89 51.4045701 89 53.4351203 89 55.4656704 89 57.4962205 89 59.5267707 89 61.5573208 89 63.5878709 89 65.6184211 89 65.528838 86.4676521 65.4392549 83.9577807 65.3422065 81.4554014 65.2526234 78.9680065 65.1630403 76.503088 65.0734572 74.0456616 64.9838741 71.6032196 64.894291 69.183254 64.8047079 66.7707806 64.7151249 64.3732915 64.633007 61.9907867 64.5434239 59.615774 64.4538408 57.2632378 64.371723 54.9181938 64.2896052 52.5956262 64.2000221 50.2805508 64.1179042 47.9804597 64.0357864 45.6953528 63.9462033 43.4177382 63.8640855 41.1551078 63.7819676 38.9074618 63.6998498 36.6748 63.617732 34.4496305 63.5430794 32.2394452 63.4609615 30.0442442 63.3788437 27.8565354 63.2967259 25.6838109 63.2220733 23.5260707 63.1399555 21.3758226 63.0653029 19.2405589 62.983185 17.1127873"></polygon>
            <path d="M43.6184211,19 L40.5034085,19 L40.5034085,12.4181674 C40.3761334,8.54311045 37.1073326,5.46579879 33.1184211,5.46579879 C29.1295095,5.46579879 25.8607087,8.54311045 25.7334336,12.4181674 L25.7334336,19 L22.6184211,19 L22.6184211,12.4181674 C23.058282,7.09887256 27.627978,3 33.1184211,3 C38.6088642,3 43.1785601,7.09887256 43.6184211,12.4181674 L43.6184211,19 Z" id="Path" fill="url(#linearGradient-4)"></path>
            <path d="M26.3739054,50.1112718 C26.3739054,50.8565647 26.1146478,54.2774587 23.6183681,55.0227516 C21.9146756,55.5370036 21.0332,54.2029295 21.0332,51.1770406 L21.0332,39.9380248 C20.961316,38.5733347 21.3106007,37.219665 22.0331934,36.0625021 C22.6121842,35.2748443 23.4885658,34.7624991 24.4553995,34.6464458 C25.477615,34.5719165 26.3813127,35.4588149 26.3813127,37.2251589 L26.3813127,38.9020678 C26.3813127,39.2747142 26.6850144,39.4684903 27.0627897,39.3343376 L31.2997987,37.7841286 C31.4795051,37.717517 31.6040066,37.5514648 31.6184211,37.3593116 L31.6184211,35.4811737 C31.6184211,30.8529053 27.6257489,28.1325865 23.3739252,29.2505257 C17.5517416,30.7858289 15.6184211,36.1593902 15.6184211,39.6846252 L15.6184211,53.5470718 C15.6184211,58.5554395 19.1146942,61 22.1146743,61 C26.5072378,61 31.6184211,57.5418413 31.6184211,50.0292896 L31.6184211,41.480781 C31.6214608,41.3321197 31.5544342,41.1907458 31.4376221,41.0996595 C31.32081,41.0085732 31.1680206,40.9785417 31.0257264,41.0186994 L24.2109567,43.5228833 C23.903237,43.6026235 23.7009796,43.8983369 23.7368858,44.2160056 L23.7368858,48.1586047 C23.7340775,48.3239829 23.8179587,48.4786492 23.9577023,48.5657621 C24.097446,48.6528751 24.2724363,48.6595833 24.4183628,48.5834216 L26.4109421,47.8381287 L26.3739054,50.1112718 Z" id="Path" fill="#F04849"></path>
            <path d="M48.9457557,76.9407125 C49.0903293,77.0242757 49.2672099,77.0191906 49.4071245,76.9274485 C49.5470392,76.8357064 49.627718,76.6719097 49.6175642,76.5002074 L49.6175642,46.8800366 C49.5653234,46.6287429 49.3819264,46.4291922 49.1429168,46.3635823 L44.9149046,44.7610551 C44.7708393,44.6814624 44.5967447,44.6886324 44.4591815,44.7798239 C44.3216182,44.8710154 44.2418593,45.0321264 44.2503983,45.2015603 L44.2503983,56.7078574 L39.8690385,55.0673556 L39.8690385,43.242072 C39.8489369,42.9743142 39.6715467,42.7474707 39.4236002,42.6724534 L35.2686106,41.0471414 C35.1257237,40.9751183 34.9570029,40.9862129 34.823975,41.0763796 C34.6909472,41.1665462 34.6130572,41.322605 34.6187089,41.4876465 L34.6187089,71.1078173 C34.6419019,71.3767735 34.8218343,71.6031567 35.0714494,71.677436 L39.2994617,73.2799632 C39.4401983,73.3592236 39.6109998,73.3538643 39.7468865,73.265924 C39.8827732,73.1779837 39.9628551,73.0209817 39.9566657,72.8546479 L39.9566657,60.8622762 L44.3380255,62.5103729 L44.3380255,74.7685666 C44.3687315,75.0342407 44.5456633,75.2568487 44.7907661,75.3381853 L48.9457557,76.9407125 Z" id="Path" fill="#F04849"></path>
            <polygon id="Path" fill="url(#linearGradient-5)" points="65.4863669 89 69.6184211 80.4193548 65.1624391 13 62.6184211 15.175059"></polygon>
            <polygon id="Path" fill="#DEDEDE" points="65.6184211 89 69.6238915 80 72.6184211 82.9320557"></polygon>
        </g>
    </g>
</svg>